HIERARCHY
ROOT Hips
{
 OFFSET 0.000000 0.000000 0.000000
 CHANNELS 6 Xposition Yposition Zposition Yrotation Xrotation Zrotation
 JOINT Chest
 {
  OFFSET 0.000000 9.585900 0.002600
  CHANNELS 3 Yrotation Xrotation Zrotation
  JOINT Chest2
  {
   OFFSET 0.000000 9.601200 -0.005300
   CHANNELS 3 Yrotation Xrotation Zrotation
   JOINT Chest3
   {
    OFFSET 0.000000 9.561800 0.000000
    CHANNELS 3 Yrotation Xrotation Zrotation
    JOINT Chest4
    {
     OFFSET 0.000000 9.552100 0.000000
     CHANNELS 3 Yrotation Xrotation Zrotation
     JOINT Neck
     {
      OFFSET 0.000000 14.453000 0.000000
      CHANNELS 3 Yrotation Xrotation Zrotation
      JOINT Head
      {
       OFFSET 0.000000 8.936500 -0.011300
       CHANNELS 3 Yrotation Xrotation Zrotation
       End Site
       {
        OFFSET 0.000000 17.073600 -0.006000
       }
      }
     }
     JOINT RightCollar
     {
      OFFSET -2.921100 9.558500 0.000000
      CHANNELS 3 Yrotation Xrotation Zrotation
      JOINT RightShoulder
      {
       OFFSET -13.519700 0.000000 0.000000
       CHANNELS 3 Yrotation Xrotation Zrotation
       JOINT RightElbow
       {
        OFFSET 0.000000 -29.696600 0.000000
        CHANNELS 3 Yrotation Xrotation Zrotation
        JOINT RightWrist
        {
         OFFSET 0.000000 -24.004700 0.000000
         CHANNELS 3 Yrotation Xrotation Zrotation
         End Site
         {
          OFFSET 0.000000 -17.728500 0.000000
         }
        }
       }
      }
     }
     JOINT LeftCollar
     {
      OFFSET 2.921100 9.558500 0.000000
      CHANNELS 3 Yrotation Xrotation Zrotation
      JOINT LeftShoulder
      {
       OFFSET 13.519700 0.000000 0.000000
       CHANNELS 3 Yrotation Xrotation Zrotation
       JOINT LeftElbow
       {
        OFFSET 0.000000 -29.696600 0.000000
        CHANNELS 3 Yrotation Xrotation Zrotation
        JOINT LeftWrist
        {
         OFFSET 0.000000 -24.004700 0.000000
         CHANNELS 3 Yrotation Xrotation Zrotation
         End Site
         {
          OFFSET 0.000000 -17.728500 0.000000
         }
        }
       }
      }
     }
    }
   }
  }
 }
 JOINT RightHip
 {
  OFFSET -7.771700 -0.012900 -0.001300
  CHANNELS 3 Yrotation Xrotation Zrotation
  JOINT RightKnee
  {
   OFFSET 0.000000 -40.869800 0.001200
   CHANNELS 3 Yrotation Xrotation Zrotation
   JOINT RightAnkle
   {
    OFFSET 0.000000 -39.717900 0.002100
    CHANNELS 3 Yrotation Xrotation Zrotation
    JOINT RightToe
    {
     OFFSET 0.000000 -4.965400 11.033500
     CHANNELS 3 Yrotation Xrotation Zrotation
     End Site
     {
      OFFSET 0.000000 -1.423100 5.872300
     }
    }
   }
  }
 }
 JOINT LeftHip
 {
  OFFSET 7.771700 -0.012900 -0.001300
  CHANNELS 3 Yrotation Xrotation Zrotation
  JOINT LeftKnee
  {
   OFFSET 0.000000 -40.869800 0.001200
   CHANNELS 3 Yrotation Xrotation Zrotation
   JOINT LeftAnkle
   {
    OFFSET 0.000000 -39.717900 0.002100
    CHANNELS 3 Yrotation Xrotation Zrotation
    JOINT LeftToe
    {
     OFFSET 0.000000 -4.965400 11.033500
     CHANNELS 3 Yrotation Xrotation Zrotation
     End Site
     {
      OFFSET 0.000000 -1.423100 5.872300
     }
    }
   }
  }
 }
}
MOTION
Frames: 9
Frame Time: 0.008333
0.000000 85.388000 0.000000 0.000000 -5.767877 0.000000 0.000000 11.653817 0.000000 0.000000 -5.885947 0.000000 0.000000 -0.000000 0.000000 0.000000 -0.000000 0.000000 0.000000 12.528835 0.000000 0.000000 0.711642 0.000000 0.000000 -0.000000 0.000000 0.000000 0.000000 -90.000000 0.000000 -2.309062 0.000000 0.000000 2.309062 0.000000 0.000000 -0.000000 0.000000 0.000000 -0.000000 90.000000 0.000000 -2.309062 0.000000 0.000000 2.309062 0.000000 0.000000 8.520406 0.000000 0.000000 1.905762 0.000000 -0.000000 -4.658285 0.000000 0.000000 -0.000000 0.000000 0.000000 8.520406 0.000000 0.000000 1.905762 0.000000 -0.000000 -4.658285 0.000000 0.000000 -0.000000 0.000000
-214.372406 57.687845 -70.921558 159.775439 -7.812742 0.554015 3.428323 7.238989 1.355989 0.143476 0.353379 0.024734 0.259730 0.611151 0.038826 2.977004 6.904019 0.603851 0.555080 17.895752 -1.209409 1.426824 -2.554689 -2.409732 -0.118377 5.889075 -2.304287 -3.708513 -8.655257 -8.731763 -101.394320 -87.263763 133.989655 -0.005799 11.487263 -25.795241 -1.079447 6.340681 1.810304 13.623239 -2.742377 2.960025 144.123062 -84.420945 -175.324296 -2.343138 7.181863 14.627910 -17.528826 -63.857997 8.973861 -31.501337 72.825309 -31.664385 -3.028473 -7.450236 -2.426134 -0.312873 0.730706 -0.142745 2.048807 -66.514232 14.807243 41.073058 65.019029 33.907375 -18.178747 -7.680400 4.022432 -0.138103 -1.056485 -0.083738
-214.371834 57.687782 -70.920036 159.777913 -7.801792 0.549421 3.417816 7.233767 1.362714 0.146668 0.350607 0.022474 0.259549 0.611025 0.039097 2.975773 6.903403 0.606749 0.554762 17.900471 -1.211357 1.424229 -2.547922 -2.415865 -0.118514 5.890374 -2.308929 -3.710531 -8.651373 -8.727361 -101.324520 -87.260225 133.918896 -0.014120 11.476178 -25.816748 -1.077279 6.339307 1.805667 13.610953 -2.742342 2.957314 144.137148 -84.417796 -175.328714 -2.344943 7.191787 14.615026 -17.547142 -63.866696 8.991778 -31.486388 72.825948 -31.646406 -3.041499 -7.447561 -2.429471 -0.310705 0.728916 -0.142337 2.049176 -66.524318 14.807315 41.081505 65.001437 33.920177 -18.216802 -7.647553 4.026823 -0.126208 -1.059220 -0.087661
-214.372096 57.687910 -70.920372 159.766457 -7.798673 0.554808 3.422949 7.233774 1.360073 0.149816 0.349126 0.020963 0.257693 0.611176 0.040460 2.976390 6.902543 0.606801 0.552339 17.905946 -1.209079 1.425437 -2.537986 -2.420294 -0.123138 5.895115 -2.306117 -3.710793 -8.648826 -8.727269 -101.309396 -87.266258 133.902668 -0.017689 11.472281 -25.835775 -1.075105 6.339177 1.803437 13.588909 -2.738590 2.952268 144.188094 -84.427838 -175.373011 -2.348161 7.186032 14.616842 -17.537117 -63.870013 8.988793 -31.465050 72.825502 -31.625136 -3.040639 -7.445881 -2.432886 -0.308669 0.730670 -0.141831 2.071406 -66.523208 14.791541 41.087002 64.992725 33.926653 -18.225778 -7.625207 4.037653 -0.132930 -1.052210 -0.093604
-214.369058 57.687795 -70.918334 159.705887 -7.787985 0.542669 3.484441 7.222436 1.382342 0.149263 0.349659 0.018677 0.257734 0.610381 0.043170 2.973366 6.902405 0.605065 0.553356 17.909319 -1.208191 1.423969 -2.523591 -2.416994 -0.119834 5.896047 -2.306482 -3.715880 -8.640469 -8.722222 -101.348860 -87.269187 133.938687 -0.020527 11.471913 -25.858233 -1.078131 6.337772 1.801356 13.593110 -2.735777 2.951381 144.175897 -84.429599 -175.362746 -2.351715 7.183877 14.614829 -17.523845 -63.869369 9.038635 -31.449112 72.818892 -31.607378 -2.986413 -7.495004 -2.421005 -0.353091 0.786046 -0.162638 2.083239 -66.532176 14.840599 41.095566 64.988137 33.935212 -18.191678 -7.545387 4.050231 -0.169832 -1.098456 -0.101741
-214.366547 57.688244 -70.921374 159.682846 -7.805201 0.537967 3.509604 7.237573 1.393816 0.147995 0.349414 0.022442 0.258540 0.610468 0.039786 2.967436 6.903198 0.613999 0.551804 17.913556 -1.217537 1.419079 -2.509580 -2.414604 -0.117677 5.898891 -2.316974 -3.716835 -8.634070 -8.717367 -101.297414 -87.274056 133.880524 -0.021949 11.473571 -25.896941 -1.088971 6.331114 1.779627 13.594461 -2.727571 2.956645 144.197416 -84.433708 -175.377410 -2.354671 7.179281 14.613173 -17.502619 -63.849540 9.040690 -31.449355 72.816518 -31.605724 -2.980237 -7.491232 -2.419716 -0.356446 0.783861 -0.164395 2.085392 -66.514965 14.860320 41.107893 64.990395 33.954702 -18.198706 -7.519919 4.057728 -0.157619 -1.099728 -0.102715
-214.365222 57.688274 -70.922570 159.678505 -7.810036 0.532448 3.515806 7.240436 1.401634 0.147845 0.349773 0.022133 0.259480 0.608966 0.040540 2.965492 6.905715 0.614048 0.550159 17.919469 -1.211942 1.411612 -2.496929 -2.411515 -0.128002 5.901094 -2.318236 -3.706496 -8.631162 -8.714171 -101.264207 -87.282414 133.832417 -0.018356 11.466080 -25.888675 -1.094746 6.324869 1.772650 13.585687 -2.724040 2.945970 144.242933 -84.445689 -175.420117 -2.354031 7.169923 14.620010 -17.505895 -63.842294 9.049083 -31.446601 72.815094 -31.602127 -2.975517 -7.487838 -2.419238 -0.361236 0.781616 -0.165548 2.068269 -66.510319 14.880970 41.118311 64.987028 33.961833 -18.203415 -7.479767 4.074581 -0.159436 -1.106307 -0.107308
-214.364801 57.688005 -70.922791 159.674724 -7.808227 0.528784 3.520178 7.237992 1.406092 0.147887 0.349241 0.022443 0.261036 0.606529 0.041168 2.962526 6.904063 0.613822 0.549607 17.927410 -1.208666 1.409473 -2.482166 -2.405419 -0.132544 5.904579 -2.317400 -3.700399 -8.628326 -8.714985 -100.829560 -87.297990 133.375265 -0.014871 11.444787 -25.886837 -1.096443 6.326512 1.769074 13.580558 -2.725853 2.941204 144.121637 -84.447722 -175.300132 -2.350098 7.167537 14.620987 -17.511176 -63.844022 9.059842 -31.441408 72.815403 -31.598216 -2.973226 -7.481527 -2.417629 -0.354661 0.777457 -0.165255 2.053774 -66.512585 14.898349 41.128183 64.982212 33.965670 -18.207415 -7.431460 4.093319 -0.172641 -1.126236 -0.116239
-214.368107 57.687565 -70.923974 159.669651 -7.805081 0.547184 3.527352 7.233392 1.390187 0.147755 0.348997 0.022380 0.257316 0.607290 0.040330 2.966296 6.900452 0.614581 0.547997 17.937069 -1.200197 1.406024 -2.469832 -2.404480 -0.143254 5.908823 -2.316149 -3.693455 -8.628028 -8.716738 -100.694434 -87.302477 133.234864 -0.029459 11.453474 -25.904522 -1.104328 6.329379 1.765448 13.572216 -2.730278 2.936681 144.091854 -84.459367 -175.263057 -2.348961 7.168334 14.620812 -17.469301 -63.855494 9.017445 -31.466020 72.812020 -31.615521 -2.973914 -7.482182 -2.425340 -0.336109 0.779880 -0.157740 2.089008 -66.515439 14.859195 41.137826 64.976125 33.972426 -18.238779 -7.362921 4.126217 -0.162482 -1.154547 -0.135992
